{
	"asset":{
		"version":"2.0",
		"generator":"MAXON CINEMA 4D Studio (RC - R19) 19.068 (#200000219)"
	},
	"scenes":[{
		"nodes":[0]
	}],
	"nodes":[{
		"name":"Default",
		"mesh":0
	}],
	"meshes":[{
		"name":"Default",
		"primitives":[{
			"attributes":{
				"POSITION":1,
				"NORMAL":2
			},
			"indices":0,
			"material":0
		}]
	}],
	"accessors":[{
		"bufferView":0,
		"type":"SCALAR",
		"componentType":5123,
		"count":352722,
		"byteOffset":0,
		"min":[0],
		"max":[58795]
	},
	{
		"bufferView":1,
		"type":"VEC3",
		"componentType":5126,
		"count":58796,
		"byteOffset":0,
		"min":[-1.0909866094589234,
		-1.656388282775879,
		-1.6100786924362183],
		"max":[1.0907074213027955,
		1.6617830991744996,
		1.607997179031372]
	},
	{
		"bufferView":1,
		"type":"VEC3",
		"componentType":5126,
		"count":58796,
		"byteOffset":12,
		"min":[-0.9999938011169434,
		-0.9999324679374695,
		-0.9999951124191284],
		"max":[0.9999468922615051,
		0.9999756813049316,
		0.9999946355819702]
	}],
	"bufferViews":[{
		"buffer":0,
		"byteOffset":0,
		"byteLength":705444,
		"target":34963
	},
	{
		"buffer":0,
		"byteOffset":705444,
		"byteLength":1411104,
		"target":34962,
		"byteStride":24
	}],
	"buffers":[{
		"uri":"data:application/octet-stream;base64,",
		"byteLength":2116548
	}],
	"materials":[{
		"pbrMetallicRoughness":{
			"baseColorFactor":[0.79,
			0.79,
			0.79,
			1.0],
			"metallicFactor":0.0,
			"roughnessFactor":0.87
		},
		"emissiveFactor":[0.0,
		0.0,
		0.0],
		"alphaMode":"OPAQUE",
		"doubleSided":false,
		"name":"Mat"
	}]
}